<svg width="11" height="20" viewBox="0 0 11 20" fill="none" xmlns="http://www.w3.org/2000/svg">
<path d="M8.51714 19.0453C8.31795 19.046 8.12114 19.002 7.94116 18.9166C7.76119 18.8313 7.60263 18.7066 7.47714 18.552L1.03714 10.552C0.841034 10.3134 0.733826 10.0141 0.733826 9.70529C0.733826 9.39646 0.841034 9.0972 1.03714 8.85862L7.70381 0.858623C7.93013 0.586334 8.25534 0.415101 8.60791 0.382595C8.96048 0.350089 9.31152 0.458971 9.58381 0.685289C9.8561 0.911608 10.0273 1.23682 10.0598 1.58939C10.0923 1.94196 9.98346 2.293 9.75714 2.56529L3.79714 9.71196L9.55714 16.8586C9.72019 17.0543 9.82375 17.2927 9.85559 17.5454C9.88743 17.7981 9.84621 18.0547 9.7368 18.2847C9.6274 18.5148 9.45438 18.7086 9.23823 18.8434C9.02209 18.9782 8.77185 19.0483 8.51714 19.0453Z" fill="black"/>
</svg>
