<svg width="46" height="46" viewBox="0 0 46 46" fill="none" xmlns="http://www.w3.org/2000/svg">
<path d="M3.81152 45.9512C3.81152 45.9512 0.0615234 45.9512 0.0615234 42.2012C0.0615234 38.4512 3.81152 27.2012 22.5615 27.2012C41.3115 27.2012 45.0615 38.4512 45.0615 42.2012C45.0615 45.9512 41.3115 45.9512 41.3115 45.9512H3.81152ZM22.5615 23.4512C25.5452 23.4512 28.4067 22.2659 30.5165 20.1561C32.6263 18.0463 33.8115 15.1849 33.8115 12.2012C33.8115 9.21749 32.6263 6.35601 30.5165 4.24622C28.4067 2.13644 25.5452 0.951172 22.5615 0.951172C19.5778 0.951172 16.7164 2.13644 14.6066 4.24622C12.4968 6.35601 11.3115 9.21749 11.3115 12.2012C11.3115 15.1849 12.4968 18.0463 14.6066 20.1561C16.7164 22.2659 19.5778 23.4512 22.5615 23.4512Z" fill="white"/>
</svg>
